<svg width="2422" height="2195" viewBox="0 0 2422 2195" fill="none" xmlns="http://www.w3.org/2000/svg">
<path d="M1065.66 260L1048 1447.01" stroke="#F499E6" stroke-width="30" stroke-linecap="round"/>
<path fill-rule="evenodd" clip-rule="evenodd" d="M809.448 93.9639C748.277 52.6129 657.761 42.2294 569.317 73.4334C437.146 120.065 359.652 241.912 396.23 345.588C416.924 404.244 469.698 444.516 535.564 459.987C524.67 442.797 515.483 424.028 508.372 403.873C461.601 271.305 522.352 129.026 644.063 86.0849C699.397 66.5627 757.804 70.9332 809.448 93.9639Z" fill="#F499E6"/>
<path fill-rule="evenodd" clip-rule="evenodd" d="M518.893 133.93C471.287 97.0312 379.485 135.769 313.848 220.453C248.21 305.137 233.592 403.7 281.198 440.598C298.387 453.921 321.337 457.384 346.737 452.383C345.272 451.357 343.827 450.292 342.401 449.188C281.528 402.006 281.18 300.54 341.623 222.557C393.807 155.23 474.245 127.419 534.427 151.44C530.3 144.658 525.131 138.765 518.893 133.93Z" fill="#F499E6"/>
<path fill-rule="evenodd" clip-rule="evenodd" d="M1077.66 309.682C1103.29 218.313 1022.55 115.759 897.303 80.6217C772.062 45.4844 649.753 91.0694 624.119 182.439C614.863 215.428 619.476 249.876 635.044 282.083C635.703 279.344 636.416 276.607 637.183 273.871C669.961 157.039 790.027 88.5573 905.358 120.914C1004.93 148.849 1068.42 242.816 1062.81 343.16C1069.28 332.839 1074.3 321.653 1077.66 309.682Z" fill="#F499E6"/>
<path fill-rule="evenodd" clip-rule="evenodd" d="M320.273 441.144C261.805 426.676 192.602 503.069 165.704 611.773C138.805 720.477 164.398 820.327 222.866 834.795C243.977 840.019 266.487 833.397 287.9 817.687C286.144 817.346 284.391 816.959 282.64 816.526C207.877 798.026 167.35 701.881 192.119 601.78C213.504 515.356 276.57 454.239 341.518 451.056C335.03 446.401 327.934 443.039 320.273 441.144Z" fill="#F499E6"/>
<path fill-rule="evenodd" clip-rule="evenodd" d="M320.273 441.144C261.805 426.676 192.602 503.069 165.704 611.773C138.805 720.477 164.398 820.327 222.866 834.795C243.977 840.019 266.487 833.397 287.9 817.687C286.144 817.346 284.391 816.959 282.64 816.526C207.877 798.026 167.35 701.881 192.119 601.78C213.504 515.356 276.57 454.239 341.518 451.056C335.03 446.401 327.934 443.039 320.273 441.144Z" fill="#F499E6"/>
<path fill-rule="evenodd" clip-rule="evenodd" d="M233.087 824.948C168.037 841.608 108.709 934.601 92.9337 1053.11C76.9142 1173.45 104.527 1313.16 163.026 1352.63C155.086 1355.65 147.116 1356.73 139.23 1355.68C79.5245 1347.73 47.2094 1220.46 67.0517 1071.4C86.8941 922.341 151.38 807.949 211.085 815.897C218.908 816.939 226.26 820.029 233.087 824.948Z" fill="#F499E6"/>
<path fill-rule="evenodd" clip-rule="evenodd" d="M64.894 1207.78C97.4228 1296.87 190.62 1371.2 310.388 1392.37C424.792 1412.58 557.998 1385.72 635.939 1323.57C583.586 1376.83 494.931 1419.9 390.287 1436.54C211.543 1464.98 53.8377 1405.55 38.042 1303.82C32.995 1271.31 43.0465 1238.42 64.894 1207.78Z" fill="#F499E6"/>
<path fill-rule="evenodd" clip-rule="evenodd" d="M545.204 652.611C628.82 692.039 744.601 679.733 842.507 612.424C936.029 548.13 1010.44 438.369 1022.21 342C1022.18 414.706 989.891 505.197 928.388 588.334C823.334 730.343 672.822 797.121 592.212 737.488C566.455 718.433 550.951 688.779 545.204 652.611Z" fill="#F499E6"/>
<path fill-rule="evenodd" clip-rule="evenodd" d="M217.654 846.498C285.413 957.566 429.784 1031.19 594.859 1025.25C752.542 1019.58 922.275 944.834 1008.82 838.33C953.856 925.44 847.817 1009.24 713.252 1061.93C483.399 1151.93 257.354 1117.08 208.366 984.09C192.714 941.597 197.032 894.227 217.654 846.498Z" fill="#F499E6"/>
<path fill-rule="evenodd" clip-rule="evenodd" d="M81.3959 1352.48C65.161 1599.93 272.367 1814.99 544.204 1832.83C816.04 1850.66 1046.27 1704.45 1062.5 1457C1069.68 1347.52 1039.49 1385.57 980.053 1460.5C926.761 1527.68 849.956 1624.5 755.49 1671.21C682.45 1721.34 598.366 1747.55 510.517 1741.78C302.231 1728.12 138.41 1539.02 101.22 1293.61C90.4215 1300.25 83.6121 1318.7 81.3959 1352.48Z" fill="#F499E6"/>
<rect x="1235" y="76.0001" width="1178" height="1723" rx="35" fill="#D9D9D9" stroke="#505050" stroke-width="18"/>
<circle cx="1442" cy="490" r="75" fill="white"/>
<circle cx="1442" cy="490" r="75" fill="#505050"/>
<circle cx="1442" cy="899" r="75" fill="#505050"/>
<circle cx="1442" cy="1308" r="75" fill="white"/>
<circle cx="1442" cy="1308" r="75" fill="#505050"/>
<rect x="1240" y="1656" width="1168" height="140" rx="34" stroke="#505050" stroke-width="28"/>
<rect x="1611" y="516" width="678" height="408" rx="34" fill="#D9D9D9" stroke="#505050" stroke-width="28"/>
<path d="M1341 1724H1442.5V1922.6L1341 2156.47V1724Z" fill="#C6C6C6" stroke="#505050" stroke-width="16"/>
<path d="M1560 1724H1458.5V1922.6L1560 2156.47V1724Z" fill="#C6C6C6" stroke="#505050" stroke-width="16"/>
<rect x="1240" y="1656" width="1168" height="62" rx="31" fill="#D9D9D9" stroke="#505050" stroke-width="28"/>
</svg>
